<svg>
  <symbol
    id="search"
    xmlns="http://www.w3.org/2000/svg"
    fill="currentColor"
    viewBox="0 0 256 256"
  >
    <path
      d="M229.66,218.34l-50.07-50.06a88.11,88.11,0,1,0-11.31,11.31l50.06,50.07a8,8,0,0,0,11.32-11.32ZM40,112a72,72,0,1,1,72,72A72.08,72.08,0,0,1,40,112Z"
    ></path>
  </symbol>

  <symbol
    id="phone"
    xmlns="http://www.w3.org/2000/svg"
    fill="currentColor"
    viewBox="0 0 256 256"
  >
    <path
      d="M222.37,158.46l-47.11-21.11-.13-.06a16,16,0,0,0-15.17,1.4,8.12,8.12,0,0,0-.75.56L134.87,160c-15.42-7.49-31.34-23.29-38.83-38.51l20.78-24.71c.2-.25.39-.5.57-.77a16,16,0,0,0,1.32-15.06l0-.12L97.54,33.64a16,16,0,0,0-16.62-9.52A56.26,56.26,0,0,0,32,80c0,79.4,64.6,144,144,144a56.26,56.26,0,0,0,55.88-48.92A16,16,0,0,0,222.37,158.46ZM176,208A128.14,128.14,0,0,1,48,80,40.2,40.2,0,0,1,82.87,40a.61.61,0,0,0,0,.12l21,47L83.2,111.86a6.13,6.13,0,0,0-.57.77,16,16,0,0,0-1,15.7c9.06,18.53,27.73,37.06,46.46,46.11a16,16,0,0,0,15.75-1.14,8.44,8.44,0,0,0,.74-.56L168.89,152l47,21.05h0s.08,0,.11,0A40.21,40.21,0,0,1,176,208Z"
    ></path>
  </symbol>

  <symbol
    id="location"
    xmlns="http://www.w3.org/2000/svg"
    fill="currentColor"
    viewBox="0 0 256 256"
  >
    <path
      d="M128,64a40,40,0,1,0,40,40A40,40,0,0,0,128,64Zm0,64a24,24,0,1,1,24-24A24,24,0,0,1,128,128Zm0-112a88.1,88.1,0,0,0-88,88c0,31.4,14.51,64.68,42,96.25a254.19,254.19,0,0,0,41.45,38.3,8,8,0,0,0,9.18,0A254.19,254.19,0,0,0,174,200.25c27.45-31.57,42-64.85,42-96.25A88.1,88.1,0,0,0,128,16Zm0,206c-16.53-13-72-60.75-72-118a72,72,0,0,1,144,0C200,161.23,144.53,209,128,222Z"
    ></path>
  </symbol>

  <symbol
    id="clock"
    xmlns="http://www.w3.org/2000/svg"
    fill="currentColor"
    viewBox="0 0 256 256"
  >
    <path
      d="M128,24A104,104,0,1,0,232,128,104.11,104.11,0,0,0,128,24Zm0,192a88,88,0,1,1,88-88A88.1,88.1,0,0,1,128,216Zm64-88a8,8,0,0,1-8,8H128a8,8,0,0,1-8-8V72a8,8,0,0,1,16,0v48h48A8,8,0,0,1,192,128Z"
    ></path>
  </symbol>

  <symbol
    id="link"
    xmlns="http://www.w3.org/2000/svg"
    fill="currentColor"
    viewBox="0 0 256 256"
  >
    <path
      d="M137.54,186.36a8,8,0,0,1,0,11.31l-9.94,10A56,56,0,0,1,48.38,128.4L72.5,104.28A56,56,0,0,1,149.31,102a8,8,0,1,1-10.64,12,40,40,0,0,0-54.85,1.63L59.7,139.72a40,40,0,0,0,56.58,56.58l9.94-9.94A8,8,0,0,1,137.54,186.36Zm70.08-138a56.08,56.08,0,0,0-79.22,0l-9.94,9.95a8,8,0,0,0,11.32,11.31l9.94-9.94a40,40,0,0,1,56.58,56.58L172.18,140.4A40,40,0,0,1,117.33,142,8,8,0,1,0,106.69,154a56,56,0,0,0,76.81-2.26l24.12-24.12A56.08,56.08,0,0,0,207.62,48.38Z"
    ></path>
  </symbol>

  <symbol
    id="whatsapp"
    xmlns="http://www.w3.org/2000/svg"
    fill="currentColor"
    viewBox="0 0 256 256"
  >
    <path
      d="M187.58,144.84l-32-16a8,8,0,0,0-8,.5l-14.69,9.8a40.55,40.55,0,0,1-16-16l9.8-14.69a8,8,0,0,0,.5-8l-16-32A8,8,0,0,0,104,64a40,40,0,0,0-40,40,88.1,88.1,0,0,0,88,88,40,40,0,0,0,40-40A8,8,0,0,0,187.58,144.84ZM152,176a72.08,72.08,0,0,1-72-72A24,24,0,0,1,99.29,80.46l11.48,23L101,118a8,8,0,0,0-.73,7.51,56.47,56.47,0,0,0,30.15,30.15A8,8,0,0,0,138,155l14.61-9.74,23,11.48A24,24,0,0,1,152,176ZM128,24A104,104,0,0,0,36.18,176.88L24.83,210.93a16,16,0,0,0,20.24,20.24l34.05-11.35A104,104,0,1,0,128,24Zm0,192a87.87,87.87,0,0,1-44.06-11.81,8,8,0,0,0-6.54-.67L40,216,52.47,178.6a8,8,0,0,0-.66-6.54A88,88,0,1,1,128,216Z"
    ></path>
  </symbol>

  <symbol
    id="facebook"
    xmlns="http://www.w3.org/2000/svg"
    fill="currentColor"
    viewBox="0 0 256 256"
  >
    <path
      d="M128,24A104,104,0,1,0,232,128,104.11,104.11,0,0,0,128,24Zm8,191.63V152h24a8,8,0,0,0,0-16H136V112a16,16,0,0,1,16-16h16a8,8,0,0,0,0-16H152a32,32,0,0,0-32,32v24H96a8,8,0,0,0,0,16h24v63.63a88,88,0,1,1,16,0Z"
    ></path>
  </symbol>

  <symbol
    id="instagram"
    xmlns="http://www.w3.org/2000/svg"
    fill="currentColor"
    viewBox="0 0 256 256"
  >
    <path
      d="M128,80a48,48,0,1,0,48,48A48.05,48.05,0,0,0,128,80Zm0,80a32,32,0,1,1,32-32A32,32,0,0,1,128,160ZM176,24H80A56.06,56.06,0,0,0,24,80v96a56.06,56.06,0,0,0,56,56h96a56.06,56.06,0,0,0,56-56V80A56.06,56.06,0,0,0,176,24Zm40,152a40,40,0,0,1-40,40H80a40,40,0,0,1-40-40V80A40,40,0,0,1,80,40h96a40,40,0,0,1,40,40ZM192,76a12,12,0,1,1-12-12A12,12,0,0,1,192,76Z"
    ></path>
  </symbol>

  <symbol
    id="food"
    xmlns="http://www.w3.org/2000/svg"
    fill="currentColor"
    viewBox="0 0 256 256"
  >
    <path
      d="M224,104h-8.37a88,88,0,0,0-175.26,0H32a8,8,0,0,0-8,8,104.35,104.35,0,0,0,56,92.28V208a16,16,0,0,0,16,16h64a16,16,0,0,0,16-16v-3.72A104.35,104.35,0,0,0,232,112,8,8,0,0,0,224,104Zm-24.46,0H148.12a71.84,71.84,0,0,1,41.27-29.57A71.45,71.45,0,0,1,199.54,104ZM173.48,56.23q2.75,2.25,5.27,4.75a87.92,87.92,0,0,0-49.15,43H100.1A72.26,72.26,0,0,1,168,56C169.83,56,171.66,56.09,173.48,56.23ZM128,40a71.87,71.87,0,0,1,19,2.57A88.36,88.36,0,0,0,83.33,104H56.46A72.08,72.08,0,0,1,128,40Zm36.66,152A8,8,0,0,0,160,199.3V208H96v-8.7A8,8,0,0,0,91.34,192a88.29,88.29,0,0,1-51-72H215.63A88.29,88.29,0,0,1,164.66,192Z"
    ></path>
  </symbol>

  <symbol
    id="beer"
    xmlns="http://www.w3.org/2000/svg"
    fill="currentColor"
    viewBox="0 0 256 256"
  >
    <path
      d="M104,104v80a8,8,0,0,1-16,0V104a8,8,0,0,1,16,0Zm40-8a8,8,0,0,0-8,8v80a8,8,0,0,0,16,0V104A8,8,0,0,0,144,96Zm96,16v64a24,24,0,0,1-24,24H200v8a16,16,0,0,1-16,16H56a16,16,0,0,1-16-16V72c0-30.88,28.71-56,64-56,16.77,0,32.91,5.8,44.82,16H160a40,40,0,0,1,40,40V88h16A24,24,0,0,1,240,112ZM57,64H182.62A24,24,0,0,0,160,48H145.74a8,8,0,0,1-5.53-2.22C131.06,37,117.87,32,104,32,80.82,32,61.43,45.76,57,64ZM184,208V80H56V208H184Zm40-96a8,8,0,0,0-8-8H200v80h16a8,8,0,0,0,8-8Z"
    ></path>
  </symbol>

  <symbol
    id="dessert"
    xmlns="http://www.w3.org/2000/svg"
    fill="currentColor"
    viewBox="0 0 256 256"
  >
    <path
      d="M208,89.37V88A80,80,0,0,0,48,88v1.37A24,24,0,0,0,56,136h3.36l61.69,108a8,8,0,0,0,13.9,0l61.69-108H200a24,24,0,0,0,8-46.63ZM128,223.88,77.79,136H97.07l40.57,71ZM134.79,136l21.71,38-9.64,16.88L115.5,136Zm30.92,21.88L153.21,136h25ZM200,120H56a8,8,0,0,1,0-16,8,8,0,0,0,8-8V88a64,64,0,0,1,128,0v8a8,8,0,0,0,8,8,8,8,0,0,1,0,16Z"
    ></path>
  </symbol>
</svg>
