<svg>
  <symbol
    id="search"
    xmlns="http://www.w3.org/2000/svg"
    fill="currentColor"
    viewBox="0 0 256 256"
  >
    <path
      d="M229.66,218.34l-50.07-50.06a88.11,88.11,0,1,0-11.31,11.31l50.06,50.07a8,8,0,0,0,11.32-11.32ZM40,112a72,72,0,1,1,72,72A72.08,72.08,0,0,1,40,112Z"
    ></path>
  </symbol>

  <symbol
    id="phone"
    xmlns="http://www.w3.org/2000/svg"
    fill="currentColor"
    viewBox="0 0 256 256"
  >
    <path
      d="M222.37,158.46l-47.11-21.11-.13-.06a16,16,0,0,0-15.17,1.4,8.12,8.12,0,0,0-.75.56L134.87,160c-15.42-7.49-31.34-23.29-38.83-38.51l20.78-24.71c.2-.25.39-.5.57-.77a16,16,0,0,0,1.32-15.06l0-.12L97.54,33.64a16,16,0,0,0-16.62-9.52A56.26,56.26,0,0,0,32,80c0,79.4,64.6,144,144,144a56.26,56.26,0,0,0,55.88-48.92A16,16,0,0,0,222.37,158.46ZM176,208A128.14,128.14,0,0,1,48,80,40.2,40.2,0,0,1,82.87,40a.61.61,0,0,0,0,.12l21,47L83.2,111.86a6.13,6.13,0,0,0-.57.77,16,16,0,0,0-1,15.7c9.06,18.53,27.73,37.06,46.46,46.11a16,16,0,0,0,15.75-1.14,8.44,8.44,0,0,0,.74-.56L168.89,152l47,21.05h0s.08,0,.11,0A40.21,40.21,0,0,1,176,208Z"
    ></path>
  </symbol>

  <symbol
    id="location"
    xmlns="http://www.w3.org/2000/svg"
    fill="currentColor"
    viewBox="0 0 256 256"
  >
    <path
      d="M128,64a40,40,0,1,0,40,40A40,40,0,0,0,128,64Zm0,64a24,24,0,1,1,24-24A24,24,0,0,1,128,128Zm0-112a88.1,88.1,0,0,0-88,88c0,31.4,14.51,64.68,42,96.25a254.19,254.19,0,0,0,41.45,38.3,8,8,0,0,0,9.18,0A254.19,254.19,0,0,0,174,200.25c27.45-31.57,42-64.85,42-96.25A88.1,88.1,0,0,0,128,16Zm0,206c-16.53-13-72-60.75-72-118a72,72,0,0,1,144,0C200,161.23,144.53,209,128,222Z"
    ></path>
  </symbol>

  <symbol
    id="clock"
    xmlns="http://www.w3.org/2000/svg"
    fill="currentColor"
    viewBox="0 0 256 256"
  >
    <path
      d="M128,24A104,104,0,1,0,232,128,104.11,104.11,0,0,0,128,24Zm0,192a88,88,0,1,1,88-88A88.1,88.1,0,0,1,128,216Zm64-88a8,8,0,0,1-8,8H128a8,8,0,0,1-8-8V72a8,8,0,0,1,16,0v48h48A8,8,0,0,1,192,128Z"
    ></path>
  </symbol>

  <symbol
    id="link"
    xmlns="http://www.w3.org/2000/svg"
    fill="currentColor"
    viewBox="0 0 256 256"
  >
    <path
      d="M137.54,186.36a8,8,0,0,1,0,11.31l-9.94,10A56,56,0,0,1,48.38,128.4L72.5,104.28A56,56,0,0,1,149.31,102a8,8,0,1,1-10.64,12,40,40,0,0,0-54.85,1.63L59.7,139.72a40,40,0,0,0,56.58,56.58l9.94-9.94A8,8,0,0,1,137.54,186.36Zm70.08-138a56.08,56.08,0,0,0-79.22,0l-9.94,9.95a8,8,0,0,0,11.32,11.31l9.94-9.94a40,40,0,0,1,56.58,56.58L172.18,140.4A40,40,0,0,1,117.33,142,8,8,0,1,0,106.69,154a56,56,0,0,0,76.81-2.26l24.12-24.12A56.08,56.08,0,0,0,207.62,48.38Z"
    ></path>
  </symbol>

  <symbol
    id="whatsapp"
    xmlns="http://www.w3.org/2000/svg"
    fill="currentColor"
    viewBox="0 0 256 256"
  >
    <path
      d="M187.58,144.84l-32-16a8,8,0,0,0-8,.5l-14.69,9.8a40.55,40.55,0,0,1-16-16l9.8-14.69a8,8,0,0,0,.5-8l-16-32A8,8,0,0,0,104,64a40,40,0,0,0-40,40,88.1,88.1,0,0,0,88,88,40,40,0,0,0,40-40A8,8,0,0,0,187.58,144.84ZM152,176a72.08,72.08,0,0,1-72-72A24,24,0,0,1,99.29,80.46l11.48,23L101,118a8,8,0,0,0-.73,7.51,56.47,56.47,0,0,0,30.15,30.15A8,8,0,0,0,138,155l14.61-9.74,23,11.48A24,24,0,0,1,152,176ZM128,24A104,104,0,0,0,36.18,176.88L24.83,210.93a16,16,0,0,0,20.24,20.24l34.05-11.35A104,104,0,1,0,128,24Zm0,192a87.87,87.87,0,0,1-44.06-11.81,8,8,0,0,0-6.54-.67L40,216,52.47,178.6a8,8,0,0,0-.66-6.54A88,88,0,1,1,128,216Z"
    ></path>
  </symbol>

  <symbol
    id="facebook"
    xmlns="http://www.w3.org/2000/svg"
    fill="currentColor"
    viewBox="0 0 256 256"
  >
    <path
      d="M128,24A104,104,0,1,0,232,128,104.11,104.11,0,0,0,128,24Zm8,191.63V152h24a8,8,0,0,0,0-16H136V112a16,16,0,0,1,16-16h16a8,8,0,0,0,0-16H152a32,32,0,0,0-32,32v24H96a8,8,0,0,0,0,16h24v63.63a88,88,0,1,1,16,0Z"
    ></path>
  </symbol>

  <symbol
    id="instagram"
    xmlns="http://www.w3.org/2000/svg"
    fill="currentColor"
    viewBox="0 0 256 256"
  >
    <path
      d="M128,80a48,48,0,1,0,48,48A48.05,48.05,0,0,0,128,80Zm0,80a32,32,0,1,1,32-32A32,32,0,0,1,128,160ZM176,24H80A56.06,56.06,0,0,0,24,80v96a56.06,56.06,0,0,0,56,56h96a56.06,56.06,0,0,0,56-56V80A56.06,56.06,0,0,0,176,24Zm40,152a40,40,0,0,1-40,40H80a40,40,0,0,1-40-40V80A40,40,0,0,1,80,40h96a40,40,0,0,1,40,40ZM192,76a12,12,0,1,1-12-12A12,12,0,0,1,192,76Z"
    ></path>
  </symbol>
</svg>
