<?xml version="1.0" encoding="UTF-8"?>
<svg version="1.1" xmlns="http://www.w3.org/2000/svg" width="512" height="512">
<path d="M0 0 C0.6560321 -0.00559937 1.31206421 -0.01119873 1.98797607 -0.01696777 C4.1211236 -0.02887955 6.25357164 -0.0225859 8.38671875 -0.01171875 C9.12074921 -0.00989594 9.85477966 -0.00807312 10.61105347 -0.00619507 C82.52727845 0.29351689 150.44955246 30.18002784 203.07421875 78.30078125 C204.05648438 79.17863281 205.03875 80.05648437 206.05078125 80.9609375 C212.48253358 86.72888561 218.44015982 92.7423085 224.07421875 99.30078125 C224.91339844 100.25210938 225.75257813 101.2034375 226.6171875 102.18359375 C263.85376749 144.78436246 285.87819719 196.81115117 295.07421875 252.30078125 C295.20699219 253.07309082 295.33976562 253.84540039 295.4765625 254.64111328 C297.16952569 264.87260289 297.31450736 275.20407817 297.42367554 285.55371094 C297.44051617 287.07640988 297.46302948 288.59905815 297.49160767 290.12158203 C297.63165526 298.51287302 297.66180216 305.94161633 293.07421875 313.30078125 C292.62876709 314.01806396 292.18331543 314.73534668 291.72436523 315.47436523 C286.64272837 323.25103066 279.07816045 328.28183152 270.07421875 330.30078125 C257.85878861 331.25087026 247.93336007 330.42482189 238.21875 322.39453125 C233.1444222 317.44036057 228.54850273 311.34458247 227.07421875 304.30078125 C227.07421875 302.65078125 227.07421875 301.00078125 227.07421875 299.30078125 C222.78421875 301.61078125 218.49421875 303.92078125 214.07421875 306.30078125 C214.40421875 307.95078125 214.73421875 309.60078125 215.07421875 311.30078125 C201.62049051 318.84460303 188.06086899 326.18287508 174.47070312 333.47753906 C168.92015435 336.45708897 163.37172407 339.44056918 157.82421875 342.42578125 C156.2009668 343.29928223 156.2009668 343.29928223 154.54492188 344.19042969 C146.82923067 348.3462863 139.13144825 352.53401637 131.44311523 356.74023438 C126.31587782 359.54228017 121.17881389 362.32532321 116.03125 365.08984375 C115.43593475 365.40967224 114.84061951 365.72950073 114.2272644 366.059021 C111.30697589 367.62748677 108.38562622 369.1939072 105.46289062 370.7578125 C104.41294922 371.32113281 103.36300781 371.88445312 102.28125 372.46484375 C101.34772705 372.9645166 100.4142041 373.46418945 99.45239258 373.97900391 C96.92627746 375.34117351 96.92627746 375.34117351 94.07421875 377.30078125 C93.55088808 379.84471128 93.24636109 382.18479617 93.0390625 384.76171875 C92.96308334 385.58006195 92.88710419 386.39840515 92.80882263 387.24154663 C91.3766145 403.33888586 90.38973113 419.48737611 89.3269043 435.61279297 C89.07540706 439.42205807 88.81231768 443.23037605 88.54188347 447.03834152 C88.44233257 448.4708085 88.34700937 449.9035766 88.25625801 451.33662796 C87.56963203 462.14579587 86.7667665 471.51458089 79.09765625 479.63671875 C74.7718338 483.19424841 70.07247889 484.04645723 64.63671875 484.73828125 C58.53767698 483.98927612 52.33542749 482.21975666 48.13671875 477.48828125 C43.38230047 470.14054391 42.43053194 463.84887882 41.72265625 455.234375 C41.61829254 454.08211929 41.51392883 452.92986359 41.40640259 451.74269104 C41.07633973 448.07543461 40.76223126 444.40702865 40.44921875 440.73828125 C40.12579551 437.06632056 39.79909727 433.39467087 39.47061157 429.72315979 C39.26770739 427.4429959 39.06831787 425.1625158 38.87289429 422.88169861 C38.44629268 417.98010753 38.00176525 413.13922014 37.07421875 408.30078125 C27.68263514 412.87547814 18.43224614 417.67147896 9.26171875 422.67578125 C7.82094971 423.46130371 7.82094971 423.46130371 6.35107422 424.26269531 C2.84229663 426.18660087 -0.59438087 428.07984766 -3.92578125 430.30078125 C-4.15400511 433.19655674 -4.23886026 435.96764566 -4.23828125 438.86328125 C-4.42448868 445.45867034 -4.8572976 450.37367388 -9.17578125 455.66796875 C-13.90493276 460.080436 -18.78915726 462.05950248 -25.17578125 462.55078125 C-33.68354076 461.98359728 -38.38249874 458.62358786 -43.92578125 452.30078125 C-48.00007576 453.83180942 -51.80973901 455.74263855 -55.640625 457.79296875 C-56.60560158 458.30571098 -56.60560158 458.30571098 -57.59007263 458.82881165 C-59.68258754 459.94177803 -61.77300026 461.05862572 -63.86328125 462.17578125 C-65.32042732 462.95231978 -66.77762172 463.72876762 -68.23486328 464.50512695 C-77.1490144 469.25917972 -86.03853288 474.05667038 -94.89819336 478.91162109 C-102.98164996 483.34109858 -111.0959451 487.71226968 -119.22021484 492.06640625 C-124.54062357 494.92176381 -129.84400598 497.80119362 -135.11328125 500.75 C-136.09425781 501.29591797 -137.07523437 501.84183594 -138.0859375 502.40429688 C-139.91083007 503.42217024 -141.73153976 504.44759963 -143.546875 505.48242188 C-152.24049805 510.3174868 -160.38229559 512.869352 -170.36328125 512.73828125 C-171.18948975 512.72998291 -172.01569824 512.72168457 -172.86694336 512.71313477 C-186.04292977 512.34989998 -196.20783913 506.50399688 -205.23828125 497.05078125 C-212.62389566 488.3345602 -215.11786981 478.97930857 -215.30078125 467.86328125 C-215.33816406 467.03634766 -215.37554687 466.20941406 -215.4140625 465.35742188 C-215.58292443 453.09616976 -209.21606277 442.43413066 -203.42578125 431.98828125 C-202.81412109 430.86873047 -202.20246094 429.74917969 -201.57226562 428.59570312 C-200.30906772 426.28395989 -199.04279491 423.97389419 -197.7734375 421.66552734 C-194.96788657 416.55636998 -192.19808434 411.42802856 -189.42578125 406.30078125 C-188.35424277 404.32417749 -187.28262762 402.34761529 -186.2109375 400.37109375 C-182.74879219 393.97960096 -179.30588414 387.57781469 -175.86328125 381.17578125 C-171.09398874 372.30804178 -166.29237738 363.45883263 -161.46240234 354.62402344 C-157.00985964 346.47206055 -152.60617901 338.29415252 -148.20703125 330.11328125 C-143.76187752 321.84822618 -139.29642302 313.59437408 -134.82275391 305.34472656 C-130.82156538 297.96295192 -126.83986617 290.5708339 -122.86328125 283.17578125 C-118.09398874 274.30804178 -113.29237738 265.45883263 -108.46240234 256.62402344 C-104.00985964 248.47206055 -99.60617901 240.29415252 -95.20703125 232.11328125 C-90.76187752 223.84822618 -86.29642302 215.59437408 -81.82275391 207.34472656 C-77.82156538 199.96295192 -73.83986617 192.5708339 -69.86328125 185.17578125 C-65.09398874 176.30804178 -60.29237738 167.45883263 -55.46240234 158.62402344 C-51.01064399 150.47349657 -46.60791908 142.29693434 -42.20922852 134.11767578 C-36.68551702 123.8479622 -31.13267175 113.5942014 -25.57421875 103.34326172 C-23.83519535 100.13358909 -22.09896213 96.92241878 -20.36328125 93.7109375 C-19.77748291 92.6276416 -19.19168457 91.5443457 -18.58813477 90.42822266 C-17.47080374 88.36183239 -16.35406646 86.29512092 -15.23803711 84.22802734 C-12.52675818 79.21602103 -9.77874133 74.23359711 -6.92578125 69.30078125 C-7.81394531 69.19765625 -8.70210937 69.09453125 -9.6171875 68.98828125 C-17.67882544 67.31313571 -23.57519997 61.12082138 -28.453125 54.8046875 C-32.17793787 48.4715176 -33.46144308 42.67244252 -33.36328125 35.36328125 C-33.35192139 34.17532959 -33.35192139 34.17532959 -33.34033203 32.96337891 C-33.17159645 26.9861981 -32.28929452 22.34605115 -28.92578125 17.30078125 C-28.30703125 16.27984375 -28.30703125 16.27984375 -27.67578125 15.23828125 C-21.23480707 5.57681998 -11.56636386 0.08364994 0 0 Z " fill="#FEC260" transform="translate(214.92578125,-0.30078125)"/>
<path d="M0 0 C0.6560321 -0.00559937 1.31206421 -0.01119873 1.98797607 -0.01696777 C4.1211236 -0.02887955 6.25357164 -0.0225859 8.38671875 -0.01171875 C9.12074921 -0.00989594 9.85477966 -0.00807312 10.61105347 -0.00619507 C82.52727845 0.29351689 150.44955246 30.18002784 203.07421875 78.30078125 C204.05648438 79.17863281 205.03875 80.05648437 206.05078125 80.9609375 C212.48253358 86.72888561 218.44015982 92.7423085 224.07421875 99.30078125 C224.91339844 100.25210938 225.75257813 101.2034375 226.6171875 102.18359375 C263.85376749 144.78436246 285.87819719 196.81115117 295.07421875 252.30078125 C295.20699219 253.07309082 295.33976562 253.84540039 295.4765625 254.64111328 C297.16952569 264.87260289 297.31450736 275.20407817 297.42367554 285.55371094 C297.44051617 287.07640988 297.46302948 288.59905815 297.49160767 290.12158203 C297.63165526 298.51287302 297.66180216 305.94161633 293.07421875 313.30078125 C292.62876709 314.01806396 292.18331543 314.73534668 291.72436523 315.47436523 C286.64272837 323.25103066 279.07816045 328.28183152 270.07421875 330.30078125 C257.85878861 331.25087026 247.93336007 330.42482189 238.21875 322.39453125 C233.1444222 317.44036057 228.54850273 311.34458247 227.07421875 304.30078125 C227.07421875 302.65078125 227.07421875 301.00078125 227.07421875 299.30078125 C222.78421875 301.61078125 218.49421875 303.92078125 214.07421875 306.30078125 C214.40421875 307.95078125 214.73421875 309.60078125 215.07421875 311.30078125 C201.62049051 318.84460303 188.06086899 326.18287508 174.47070312 333.47753906 C168.92015435 336.45708897 163.37172407 339.44056918 157.82421875 342.42578125 C156.2009668 343.29928223 156.2009668 343.29928223 154.54492188 344.19042969 C146.82923067 348.3462863 139.13144825 352.53401637 131.44311523 356.74023438 C126.31587782 359.54228017 121.17881389 362.32532321 116.03125 365.08984375 C115.43593475 365.40967224 114.84061951 365.72950073 114.2272644 366.059021 C111.30697589 367.62748677 108.38562622 369.1939072 105.46289062 370.7578125 C104.41294922 371.32113281 103.36300781 371.88445312 102.28125 372.46484375 C101.34772705 372.9645166 100.4142041 373.46418945 99.45239258 373.97900391 C96.92627746 375.34117351 96.92627746 375.34117351 94.07421875 377.30078125 C93.55088808 379.84471128 93.24636109 382.18479617 93.0390625 384.76171875 C92.96308334 385.58006195 92.88710419 386.39840515 92.80882263 387.24154663 C91.3766145 403.33888586 90.38973113 419.48737611 89.3269043 435.61279297 C89.07540706 439.42205807 88.81231768 443.23037605 88.54188347 447.03834152 C88.44233257 448.4708085 88.34700937 449.9035766 88.25625801 451.33662796 C87.56963203 462.14579587 86.7667665 471.51458089 79.09765625 479.63671875 C74.7718338 483.19424841 70.07247889 484.04645723 64.63671875 484.73828125 C58.53767698 483.98927612 52.33542749 482.21975666 48.13671875 477.48828125 C43.38230047 470.14054391 42.43053194 463.84887882 41.72265625 455.234375 C41.61829254 454.08211929 41.51392883 452.92986359 41.40640259 451.74269104 C41.07633973 448.07543461 40.76223126 444.40702865 40.44921875 440.73828125 C40.12579551 437.06632056 39.79909727 433.39467087 39.47061157 429.72315979 C39.26770739 427.4429959 39.06831787 425.1625158 38.87289429 422.88169861 C38.44629268 417.98010753 38.00176525 413.13922014 37.07421875 408.30078125 C27.68263514 412.87547814 18.43224614 417.67147896 9.26171875 422.67578125 C7.82094971 423.46130371 7.82094971 423.46130371 6.35107422 424.26269531 C2.84229663 426.18660087 -0.59438087 428.07984766 -3.92578125 430.30078125 C-4.15400511 433.19655674 -4.23886026 435.96764566 -4.23828125 438.86328125 C-4.42448868 445.45867034 -4.8572976 450.37367388 -9.17578125 455.66796875 C-13.90493276 460.080436 -18.78915726 462.05950248 -25.17578125 462.55078125 C-33.68354076 461.98359728 -38.38249874 458.62358786 -43.92578125 452.30078125 C-48.00007576 453.83180942 -51.80973901 455.74263855 -55.640625 457.79296875 C-56.60560158 458.30571098 -56.60560158 458.30571098 -57.59007263 458.82881165 C-59.68258754 459.94177803 -61.77300026 461.05862572 -63.86328125 462.17578125 C-65.32042732 462.95231978 -66.77762172 463.72876762 -68.23486328 464.50512695 C-77.1490144 469.25917972 -86.03853288 474.05667038 -94.89819336 478.91162109 C-102.98164996 483.34109858 -111.0959451 487.71226968 -119.22021484 492.06640625 C-124.54062357 494.92176381 -129.84400598 497.80119362 -135.11328125 500.75 C-136.09425781 501.29591797 -137.07523437 501.84183594 -138.0859375 502.40429688 C-139.91083007 503.42217024 -141.73153976 504.44759963 -143.546875 505.48242188 C-152.24049805 510.3174868 -160.38229559 512.869352 -170.36328125 512.73828125 C-171.18948975 512.72998291 -172.01569824 512.72168457 -172.86694336 512.71313477 C-186.04292977 512.34989998 -196.20783913 506.50399688 -205.23828125 497.05078125 C-212.62389566 488.3345602 -215.11786981 478.97930857 -215.30078125 467.86328125 C-215.33816406 467.03634766 -215.37554687 466.20941406 -215.4140625 465.35742188 C-215.58292443 453.09616976 -209.21606277 442.43413066 -203.42578125 431.98828125 C-202.81412109 430.86873047 -202.20246094 429.74917969 -201.57226562 428.59570312 C-200.30906772 426.28395989 -199.04279491 423.97389419 -197.7734375 421.66552734 C-194.96788657 416.55636998 -192.19808434 411.42802856 -189.42578125 406.30078125 C-188.35424277 404.32417749 -187.28262762 402.34761529 -186.2109375 400.37109375 C-182.74879219 393.97960096 -179.30588414 387.57781469 -175.86328125 381.17578125 C-171.09398874 372.30804178 -166.29237738 363.45883263 -161.46240234 354.62402344 C-157.00985964 346.47206055 -152.60617901 338.29415252 -148.20703125 330.11328125 C-143.76187752 321.84822618 -139.29642302 313.59437408 -134.82275391 305.34472656 C-130.82156538 297.96295192 -126.83986617 290.5708339 -122.86328125 283.17578125 C-118.09398874 274.30804178 -113.29237738 265.45883263 -108.46240234 256.62402344 C-104.00985964 248.47206055 -99.60617901 240.29415252 -95.20703125 232.11328125 C-90.76187752 223.84822618 -86.29642302 215.59437408 -81.82275391 207.34472656 C-77.82156538 199.96295192 -73.83986617 192.5708339 -69.86328125 185.17578125 C-65.09398874 176.30804178 -60.29237738 167.45883263 -55.46240234 158.62402344 C-51.01064399 150.47349657 -46.60791908 142.29693434 -42.20922852 134.11767578 C-36.68551702 123.8479622 -31.13267175 113.5942014 -25.57421875 103.34326172 C-23.83519535 100.13358909 -22.09896213 96.92241878 -20.36328125 93.7109375 C-19.77748291 92.6276416 -19.19168457 91.5443457 -18.58813477 90.42822266 C-17.47080374 88.36183239 -16.35406646 86.29512092 -15.23803711 84.22802734 C-12.52675818 79.21602103 -9.77874133 74.23359711 -6.92578125 69.30078125 C-7.81394531 69.19765625 -8.70210937 69.09453125 -9.6171875 68.98828125 C-17.67882544 67.31313571 -23.57519997 61.12082138 -28.453125 54.8046875 C-32.17793787 48.4715176 -33.46144308 42.67244252 -33.36328125 35.36328125 C-33.35192139 34.17532959 -33.35192139 34.17532959 -33.34033203 32.96337891 C-33.17159645 26.9861981 -32.28929452 22.34605115 -28.92578125 17.30078125 C-28.30703125 16.27984375 -28.30703125 16.27984375 -27.67578125 15.23828125 C-21.23480707 5.57681998 -11.56636386 0.08364994 0 0 Z M-9.92578125 101.30078125 C-10.95906325 102.6084915 -11.96655465 103.93782046 -12.92578125 105.30078125 C-12.08015625 105.59210938 -11.23453125 105.8834375 -10.36328125 106.18359375 C-4.04249491 108.46769609 1.33751787 110.70287745 6.48828125 115.06640625 C8.17237266 116.51857789 8.17237266 116.51857789 11.07421875 117.30078125 C12.08203125 119.1171875 12.08203125 119.1171875 13.07421875 121.30078125 C14.02264943 122.6204548 14.98177462 123.93248231 15.94921875 125.23828125 C22.96694273 135.73046661 24.66291739 147.72074384 22.32421875 159.98828125 C19.34965029 171.55139243 12.87133659 182.20771438 2.75390625 188.81640625 C-10.57539826 195.93108326 -24.41727791 196.89580863 -38.92578125 193.30078125 C-38.59578125 191.65078125 -38.26578125 190.00078125 -37.92578125 188.30078125 C-38.6734375 187.75808594 -39.42109375 187.21539062 -40.19140625 186.65625 C-41.17625 185.94082031 -42.16109375 185.22539062 -43.17578125 184.48828125 C-44.1503125 183.78058594 -45.12484375 183.07289063 -46.12890625 182.34375 C-48.40767134 180.67923304 -50.67343947 179.00076302 -52.92578125 177.30078125 C-60.19969017 190.03974343 -67.15311638 202.94531235 -74.08642578 215.87207031 C-77.07016081 221.43399953 -80.05965931 226.99282174 -83.05078125 232.55078125 C-83.63303467 233.63278809 -84.21528809 234.71479492 -84.81518555 235.82958984 C-88.98010635 243.56219312 -93.17901216 251.27571267 -97.39160156 258.98242188 C-103.62334463 270.39288741 -109.77030953 281.84905306 -115.92578125 293.30078125 C-123.04523001 306.54590621 -130.17619512 319.78369009 -137.3894043 332.97802734 C-141.8411278 341.12836599 -146.24372965 349.30478849 -150.64233398 357.48388672 C-157.24390377 369.75756013 -163.88712874 382.00856146 -170.53027344 394.25976562 C-173.7665855 400.22874483 -177.00045189 406.19903849 -180.23144531 412.17089844 C-181.39652161 414.32309991 -182.56259302 416.47476289 -183.72949219 418.62597656 C-192.40993056 434.58959922 -192.40993056 434.58959922 -200.73828125 450.73828125 C-201.05772705 451.37636719 -201.37717285 452.01445312 -201.70629883 452.671875 C-204.60562577 458.54426141 -206.23805101 463.90425963 -204.3125 470.35546875 C-201.8421891 475.94903617 -197.87945202 479.79150729 -192.92578125 483.30078125 C-186.12598798 485.56737901 -180.12810305 485.18500541 -173.60620117 482.09863281 C-169.9945933 480.25514611 -166.45536054 478.29613914 -162.92578125 476.30078125 C-162.07435547 475.82382812 -161.22292969 475.346875 -160.34570312 474.85546875 C-155.5485715 472.1654884 -150.76552252 469.45167997 -145.98828125 466.7265625 C-140.01327071 463.33140732 -133.97846902 460.05491976 -127.92578125 456.80078125 C-119.8909267 452.47854307 -111.91775509 448.06342554 -103.98828125 443.55078125 C-97.09531254 439.63106582 -90.18115314 435.76652226 -83.17578125 432.05078125 C-82.478479 431.67985352 -81.78117676 431.30892578 -81.06274414 430.92675781 C-73.31900356 426.85594153 -65.74578057 425.87829538 -57.12890625 427.984375 C-47.34069239 431.64735565 -41.30291942 437.62151704 -35.00390625 445.8125 C-31.76916824 449.68567314 -30.06263538 451.15641882 -24.98828125 451.80078125 C-21.47251005 451.68271431 -20.92250502 451.29813238 -17.98828125 448.92578125 C-14.61632476 444.63420026 -14.77787639 441.42965297 -14.75 436.14453125 C-14.72677668 434.46483156 -14.70265837 432.78514406 -14.67773438 431.10546875 C-14.64282121 428.46378735 -14.61339279 425.82254658 -14.59985352 423.18066406 C-14.53034216 411.83213333 -14.18323611 402.8121828 -7.80078125 393.05078125 C0.56295517 385.05068554 8.74405844 382.81380806 19.984375 383.02734375 C28.26229723 383.41077422 34.42593349 386.81711694 40.38671875 392.44140625 C45.6502034 398.24098655 48.10750943 405.28857883 48.71264648 413.02734375 C48.84805092 414.67935791 48.84805092 414.67935791 48.9861908 416.36474609 C49.07582596 417.5398877 49.16546112 418.7150293 49.2578125 419.92578125 C49.46524114 422.4310106 49.67293142 424.93621829 49.88085938 427.44140625 C50.19882031 431.37792498 50.51281004 435.31469889 50.8215332 439.25195312 C51.12299918 443.06084605 51.43957101 446.86825862 51.7578125 450.67578125 C51.84542343 451.85092285 51.93303436 453.02606445 52.02330017 454.23681641 C52.615344 461.21637904 53.34086075 466.41557003 58.32421875 471.67578125 C61.87969376 473.77674376 64.00086073 473.809951 68.07421875 473.30078125 C72.32251426 471.46629001 74.13618877 469.4603666 76.07421875 465.30078125 C76.72015105 461.67805918 76.95952173 458.04379759 77.20703125 454.375 C77.28919891 453.31344193 77.37136658 452.25188385 77.45602417 451.15815735 C77.71592175 447.76898779 77.95808506 444.37883265 78.19921875 440.98828125 C78.45129887 437.60881703 78.70699176 434.2296453 78.96383667 430.85054016 C79.12216953 428.75053854 79.27707146 426.6502745 79.42800903 424.54972839 C79.73343222 420.36182676 80.05696237 416.19334778 80.59936523 412.02880859 C81.05447887 408.4557571 81.3336993 404.9233635 81.5390625 401.328125 C81.61560059 400.02697754 81.69213867 398.72583008 81.77099609 397.38525391 C81.81005066 396.7081134 81.84910522 396.0309729 81.88934326 395.33331299 C82.2213463 389.64952037 82.58755355 383.96771806 82.94854736 378.28570557 C83.06591511 376.43193352 83.18122913 374.57803175 83.29638672 372.72412109 C83.49587537 369.6230631 83.71817933 366.52462679 83.94921875 363.42578125 C84.00327881 362.53753662 84.05733887 361.64929199 84.11303711 360.73413086 C84.7998238 352.12085291 87.51201001 343.70744538 93.5625 337.33984375 C98.94087373 332.97357456 105.18505226 329.95044764 111.30322266 326.75488281 C115.32290884 324.6455215 119.31119138 322.47906625 123.30371094 320.31884766 C131.07122227 316.11966006 138.85611725 311.95272582 146.640625 307.78515625 C152.02752487 304.89889883 157.40667548 301.99868676 162.77929688 299.0859375 C165.03933284 297.86147225 167.3011474 296.64028581 169.56445312 295.421875 C173.01387557 293.56394086 176.45063005 291.68326717 179.88671875 289.80078125 C180.93674072 289.23746094 181.9867627 288.67414063 183.06860352 288.09375 C189.60560788 284.48237157 194.15378738 281.41599132 197.38671875 274.48828125 C198.69904406 268.40386391 199.17791158 263.51988033 195.82421875 258.05078125 C194.30992886 255.87958814 192.72366916 253.88649537 191.01171875 251.86328125 C184.62182604 243.41213283 184.50336711 234.84403938 184.51171875 224.61328125 C184.50809183 222.52393601 184.49840427 220.43541235 184.47096252 218.34623718 C184.44669702 216.45922946 184.4442461 214.57197785 184.44311523 212.68481445 C183.75962412 206.41488039 180.8380742 202.27377442 176.07421875 198.30078125 C171.61838619 195.62597693 166.97791884 193.30405154 162.35351562 190.9375 C146.665219 182.69177413 142.59096469 173.51174005 137.16210938 157.2578125 C134.58612208 149.87026708 132.25119951 144.64335897 124.9453125 141.015625 C119.78250363 138.94644214 114.63596514 138.39736366 109.13671875 137.86328125 C97.50512174 136.47026408 89.83988287 134.26583689 82.1328125 125.0390625 C80.58362882 122.97838365 79.11362058 120.9149877 77.671875 118.78125 C71.25462005 108.78808353 71.25462005 108.78808353 61.07421875 103.30078125 C55.35467026 103.00257747 50.22816928 103.67511389 44.63671875 104.80078125 C30.43456976 107.44297016 21.59930935 105.66225099 9.07421875 98.30078125 C2.57628723 95.05181549 -4.45310813 97.28004182 -9.92578125 101.30078125 Z " fill="#4F2261" transform="translate(214.92578125,-0.30078125)"/>
<path d="M0 0 C0.92240479 0.01200439 1.84480957 0.02400879 2.79516602 0.03637695 C27.49618041 0.52968352 53.75454817 3.52013339 77.18847656 11.56298828 C79.71922123 12.43049455 82.26183757 13.2585105 84.8046875 14.08984375 C97.71357802 18.37765217 110.14227431 23.36662377 122.375 29.3125 C123.15794434 29.69100098 123.94088867 30.06950195 124.74755859 30.45947266 C142.87297852 39.32887984 159.74377612 50.56766596 175.375 63.3125 C175.88949707 63.7254834 176.40399414 64.1384668 176.93408203 64.56396484 C185.14798381 71.18969532 192.70366264 78.44036389 200.1875 85.875 C201.49460937 87.16821167 201.49460937 87.16821167 202.828125 88.48754883 C208.76439018 94.45261438 214.16710247 100.70493647 219.375 107.3125 C219.91439209 107.99256104 220.45378418 108.67262207 221.00952148 109.37329102 C240.59779868 134.34677514 255.85334618 162.37490343 266.375 192.3125 C266.62540039 193.01810059 266.87580078 193.72370117 267.13378906 194.45068359 C274.07132586 214.33072326 281.15251523 238.06041703 280.375 259.3125 C279.08916016 258.57193359 279.08916016 258.57193359 277.77734375 257.81640625 C276.63394531 257.17574219 275.49054688 256.53507812 274.3125 255.875 C272.62447266 254.91787109 272.62447266 254.91787109 270.90234375 253.94140625 C262.50097753 250.06170557 252.07140379 250.25159472 243.375 253.3125 C238.83562892 255.67455647 234.62779488 258.47730341 230.375 261.3125 C230.21531738 260.37905762 230.05563477 259.44561523 229.89111328 258.48388672 C219.39740433 197.91217849 193.70763737 142.09769934 144.375 103.3125 C143.41207031 102.53261719 142.44914063 101.75273438 141.45703125 100.94921875 C109.88978308 75.8634588 71.74042542 59.37772137 31.83447266 53.66650391 C29.70216108 53.35958989 27.57504484 53.01698497 25.44921875 52.66796875 C19.75284265 51.78721649 14.23475347 51.27744714 8.4765625 51.1484375 C6.89186157 51.10819458 6.89186157 51.10819458 5.27514648 51.06713867 C3.19167726 51.02359782 1.10760281 51.00161106 -0.97631836 51.00512695 C-8.8829175 50.85525433 -15.53279076 48.96911224 -21.5378418 43.60327148 C-26.66186024 38.21505225 -28.7317248 32.28553654 -29.125 24.9375 C-28.9069015 18.10058612 -26.51965359 12.57156366 -21.98046875 7.4609375 C-15.27618507 1.31660528 -8.84844878 -0.18267232 0 0 Z " fill="#FDC15D" transform="translate(220.625,9.6875)"/>
<path d="M0 0 C45.48810763 0.20173319 93.19539247 19.02428032 128.5 47.1875 C129.46679688 47.950625 130.43359375 48.71375 131.4296875 49.5 C136.77838624 53.79055509 141.75787562 58.2411693 146.5 63.1875 C148.90397301 65.61098578 151.31903628 68.0148742 153.7890625 70.37109375 C189.8078615 105.12501854 214.30198873 160.03892227 215.57275391 210.05078125 C215.65686451 216.43102621 215.6157169 222.80793819 215.5 229.1875 C213.4021477 230.38755531 211.2979751 231.57252983 209.1875 232.75 C208.59259766 233.09224609 207.99769531 233.43449219 207.38476562 233.78710938 C205.79717441 234.66516262 204.15006069 235.43336268 202.5 236.1875 C201.51 235.8575 200.52 235.5275 199.5 235.1875 C199.17 234.5275 198.84 233.8675 198.5 233.1875 C192.35440986 234.86923244 187.04191802 238.00498155 181.5 241.0625 C180.43620117 241.64402832 179.37240234 242.22555664 178.27636719 242.82470703 C175.01525992 244.60810995 171.7575245 246.39756336 168.5 248.1875 C164.91810964 250.14847947 161.33430663 252.10594116 157.75 254.0625 C156.86554199 254.54581787 155.98108398 255.02913574 155.06982422 255.52709961 C146.42582432 260.24361349 137.74411372 264.88926637 129.05957031 269.53051758 C120.23887239 274.24614831 111.44026841 279.0016235 102.66455078 283.80053711 C96.01826366 287.41880676 89.28683841 290.8407181 82.5 294.1875 C82.09525302 286.132406 83.28726779 280.17805244 88.72143555 273.8137207 C92.65266421 270.21922322 97.6069948 268.03948663 102.3125 265.625 C104.07446299 264.69930611 105.83641697 263.77359413 107.59762573 262.84646606 C109.39858325 261.90021477 111.20227855 260.95934584 113.00634766 260.01904297 C118.20051461 257.2960073 123.3499711 254.49284584 128.5 251.6875 C135.83102619 247.70910321 143.1712564 243.74830555 150.52026367 239.80322266 C153.81180444 238.03396859 157.09956661 236.25786052 160.38671875 234.48046875 C164.20911549 232.41435675 168.04320536 230.37488881 171.89453125 228.36328125 C182.52581706 222.75197412 190.66955084 217.77042031 194.83203125 205.8828125 C197.09205674 196.76341141 195.65665896 189.96963929 191.16015625 181.81640625 C189.16600892 178.65861531 186.960762 175.9900345 184.5 173.1875 C182.5006021 169.20260701 182.24906661 165.88217697 182.2265625 161.453125 C182.195625 159.50792969 182.195625 159.50792969 182.1640625 157.5234375 C182.14157922 155.48527888 182.12502876 153.44745619 182.11914062 151.40917969 C182.06254406 139.75594796 180.66195046 131.70689926 172.60107422 123.03173828 C168.70151443 119.60886184 164.1851918 117.41917858 159.5625 115.125 C148.42473095 109.52968687 140.95578546 105.3798268 136.890625 93.125 C136.55546875 92.031875 136.2203125 90.93875 135.875 89.8125 C132.77473827 79.99888956 129.55722471 69.97843952 120.45336914 64.1652832 C112.2431645 60.05556322 102.78951524 59.13909604 93.80273438 57.99023438 C85.9831819 56.80041543 81.78899681 54.45295875 76.97045898 48.20385742 C74.93968599 45.34290046 73.03020264 42.41164367 71.12695312 39.46484375 C66.28119551 32.25105279 60.37057373 27.08512182 51.8984375 24.65625 C43.52006486 23.01878303 36.00266111 24.63162536 27.796875 26.50390625 C19.62356768 28.1986086 14.65211923 27.34079758 7.5 23.1875 C6.06770243 22.44816654 4.63024231 21.71873841 3.1875 21 C2.55199219 20.67644531 1.91648438 20.35289063 1.26171875 20.01953125 C-2.39920238 18.29053746 -5.68978803 17.92590305 -9.6875 17.625 C-10.77417969 17.54121094 -11.86085937 17.45742187 -12.98046875 17.37109375 C-14.22763672 17.28021484 -14.22763672 17.28021484 -15.5 17.1875 C-14.18990468 14.54045091 -12.87705236 11.8948344 -11.5625 9.25 C-11.00272461 8.11788086 -11.00272461 8.11788086 -10.43164062 6.96289062 C-9.89506836 5.88491211 -9.89506836 5.88491211 -9.34765625 4.78515625 C-9.01773682 4.12008057 -8.68781738 3.45500488 -8.34790039 2.76977539 C-6.40708159 -0.85200596 -3.91241632 0.02054841 0 0 Z " fill="#D5465F" transform="translate(226.5,69.8125)"/>
<path d="M0 0 C2.49348845 2.01679213 4.71333471 4.11941704 6.859375 6.50390625 C7.684375 7.39078125 8.509375 8.27765625 9.359375 9.19140625 C17.32046306 18.96069097 19.83842415 30.17400599 18.859375 42.50390625 C16.8651014 54.81231365 12.00899688 65.807084 2.046875 73.62890625 C-8.63934517 81.25054931 -20.95943542 84.97778768 -34.140625 83.50390625 C-45.43369536 81.25332995 -54.45124027 76.09792448 -62.140625 67.50390625 C-62.800625 66.78203125 -63.460625 66.06015625 -64.140625 65.31640625 C-71.81652838 54.52216712 -74.18653163 43.63003452 -73.140625 30.50390625 C-71.03742479 19.65330517 -66.36875961 10.9092274 -58.140625 3.50390625 C-57.25375 2.67890625 -56.366875 1.85390625 -55.453125 1.00390625 C-39.49465458 -12.00081129 -16.48808211 -12.00500869 0 0 Z " fill="#CF3D57" transform="translate(341.140625,227.49609375)"/>
<path d="M0 0 C2.49348845 2.01679213 4.71333471 4.11941704 6.859375 6.50390625 C7.684375 7.39078125 8.509375 8.27765625 9.359375 9.19140625 C17.40480615 19.06419084 19.64789781 30.08467204 18.859375 42.50390625 C17.42306727 53.7789219 12.16900949 63.78781708 3.859375 71.50390625 C2.5290625 72.74140625 2.5290625 72.74140625 1.171875 74.00390625 C-8.93101167 82.19473764 -21.39034583 84.75517588 -34.140625 83.50390625 C-45.43039369 81.27267386 -54.45906187 76.08918269 -62.140625 67.50390625 C-62.800625 66.78203125 -63.460625 66.06015625 -64.140625 65.31640625 C-71.62883028 54.78611758 -74.41546201 43.34788912 -73.140625 30.50390625 C-70.9016605 19.63983985 -66.41399025 10.94993497 -58.140625 3.50390625 C-57.25375 2.67890625 -56.366875 1.85390625 -55.453125 1.00390625 C-39.49465458 -12.00081129 -16.48808211 -12.00500869 0 0 Z " fill="#CB3852" transform="translate(209.140625,252.49609375)"/>
<path d="M0 0 C11.20316068 0.95346048 18.76667798 6.33056781 26.25 14.4375 C32.2001564 23.15022901 34.05354418 31.46455816 33 42 C30.53058193 52.23905053 25.40593374 60.909464 16.40625 66.65625 C13.96420753 67.92140453 11.56881603 69.01984762 9 70 C8.04351562 70.36609375 7.08703125 70.7321875 6.1015625 71.109375 C-1.39283174 73.26141768 -9.72258494 72.70787537 -17 70 C-17.33 71.65 -17.66 73.3 -18 75 C-19.7371511 73.9717039 -21.46437461 72.92663002 -23.1875 71.875 C-24.15042969 71.29492188 -25.11335937 70.71484375 -26.10546875 70.1171875 C-29.41268736 67.69814231 -31.49947537 65.22736816 -34 62 C-29.98951478 54.54352873 -25.97569522 47.08886102 -21.95898438 39.63574219 C-20.69649589 37.29305548 -19.43490611 34.94989236 -18.17382812 32.60644531 C-5.79921754 9.61615708 -5.79921754 9.61615708 0 0 Z " fill="#CA3751" transform="translate(196,114)"/>
<path d="M0 0 C2.49348845 2.01679213 4.71333471 4.11941704 6.859375 6.50390625 C7.684375 7.39078125 8.509375 8.27765625 9.359375 9.19140625 C17.32046306 18.96069097 19.83842415 30.17400599 18.859375 42.50390625 C16.8651014 54.81231365 12.00899688 65.807084 2.046875 73.62890625 C-8.63934517 81.25054931 -20.95943542 84.97778768 -34.140625 83.50390625 C-45.43369536 81.25332995 -54.45124027 76.09792448 -62.140625 67.50390625 C-62.800625 66.78203125 -63.460625 66.06015625 -64.140625 65.31640625 C-71.81652838 54.52216712 -74.18653163 43.63003452 -73.140625 30.50390625 C-71.03742479 19.65330517 -66.36875961 10.9092274 -58.140625 3.50390625 C-57.25375 2.67890625 -56.366875 1.85390625 -55.453125 1.00390625 C-39.49465458 -12.00081129 -16.48808211 -12.00500869 0 0 Z M-54.890625 14.37890625 C-61.56207919 22.34504904 -63.5144614 30.01388345 -63.42578125 40.30078125 C-62.52424475 50.42762959 -57.37034869 58.85046589 -50.20703125 65.828125 C-41.37784712 72.98827621 -32.16605232 74.21731625 -21.140625 73.50390625 C-11.75575815 71.69254137 -2.94077887 66.08220949 2.859375 58.50390625 C8.13318762 48.89657318 10.83157284 39.40291627 8.10546875 28.484375 C4.47517833 18.07754247 -1.35128564 9.74836423 -11.265625 4.62890625 C-27.09546444 -3.00785335 -43.47596567 2.04331899 -54.890625 14.37890625 Z " fill="#502362" transform="translate(341.140625,227.49609375)"/>
<path d="M0 0 C2.49348845 2.01679213 4.71333471 4.11941704 6.859375 6.50390625 C7.684375 7.39078125 8.509375 8.27765625 9.359375 9.19140625 C17.40480615 19.06419084 19.64789781 30.08467204 18.859375 42.50390625 C17.42306727 53.7789219 12.16900949 63.78781708 3.859375 71.50390625 C2.5290625 72.74140625 2.5290625 72.74140625 1.171875 74.00390625 C-8.93101167 82.19473764 -21.39034583 84.75517588 -34.140625 83.50390625 C-45.43039369 81.27267386 -54.45906187 76.08918269 -62.140625 67.50390625 C-62.800625 66.78203125 -63.460625 66.06015625 -64.140625 65.31640625 C-71.62883028 54.78611758 -74.41546201 43.34788912 -73.140625 30.50390625 C-70.9016605 19.63983985 -66.41399025 10.94993497 -58.140625 3.50390625 C-57.25375 2.67890625 -56.366875 1.85390625 -55.453125 1.00390625 C-39.49465458 -12.00081129 -16.48808211 -12.00500869 0 0 Z M-54.890625 14.37890625 C-62.32282281 23.25342555 -63.94092824 32.09594735 -63.140625 43.50390625 C-61.25786721 52.99181953 -55.7000815 61.52902813 -48.140625 67.50390625 C-38.6696881 73.16016023 -29.59433858 75.13555006 -18.5703125 73.0078125 C-9.27760683 70.14229176 -0.71359993 64.4034695 4.37109375 56.0078125 C9.27490904 46.55145809 10.47241265 36.67455542 7.734375 26.25390625 C4.40845587 16.5855367 -3.35444873 8.82698912 -12.328125 4.12890625 C-27.66558857 -3.29765506 -44.03645029 2.64902318 -54.890625 14.37890625 Z " fill="#502361" transform="translate(209.140625,252.49609375)"/>
<path d="M0 0 C10.56906538 4.77366662 18.47401046 12.58439782 22.8125 23.375 C24.71802733 29.74779007 24.51293747 36.37656791 21.92578125 42.51953125 C19.41697506 46.7008749 15.62365312 49.29809815 11.5 51.75 C2.31835595 53.88526606 -5.45541349 51.91420644 -13.3828125 47.01953125 C-21.54616863 41.23068745 -28.17246484 33.39314651 -30.1875 23.375 C-30.89799588 16.5262856 -30.29689251 11.03486882 -26.1875 5.375 C-18.76847132 -2.42093121 -9.9920372 -3.70647439 0 0 Z " fill="#532562" transform="translate(95.1875,368.625)"/>
<path d="M0 0 C4.51028278 2.76811346 7.81609445 7.26534742 9.8203125 12.1171875 C11.32243931 21.73079908 8.34304076 30.02001538 2.90625 37.88671875 C-3.0367601 45.09396918 -11.81784682 51.31954579 -21.37890625 52.35546875 C-28.30769012 52.56213577 -33.48134188 51.46734282 -38.71484375 46.7265625 C-43.58191925 41.3344672 -44.66099333 35.73631196 -44.4921875 28.69921875 C-43.31723515 18.99117497 -36.42040926 10.44712058 -29.046875 4.43359375 C-20.31023356 -1.72592124 -10.17216072 -4.32419788 0 0 Z " fill="#522463" transform="translate(324.1796875,152.8828125)"/>
<path d="M0 0 C6.04717548 3.28966346 6.04717548 3.28966346 7.37890625 5.953125 C6.77643066 6.26427246 6.17395508 6.57541992 5.55322266 6.89599609 C-5.13768184 12.42507462 -15.79747235 17.98514116 -26.2878418 23.88696289 C-33.5662617 27.96290989 -40.9387616 31.85863475 -48.30859375 35.765625 C-57.69650355 40.74269104 -67.01592156 45.81185871 -76.24609375 51.078125 C-106.44389266 68.27107024 -106.44389266 68.27107024 -121.40234375 64.1953125 C-126.23349111 62.34725312 -130.46325561 60.0167952 -134.62109375 56.953125 C-130.7261991 55.65482678 -127.37770385 56.11864374 -123.3125 56.40625 C-113.66326738 55.22179393 -104.70541386 49.59347295 -96.30859375 44.953125 C-95.27734375 44.38916016 -94.24609375 43.82519531 -93.18359375 43.24414062 C-85.17132915 38.84764221 -77.21580693 34.35222509 -69.27270508 29.83227539 C-61.41111343 25.36876873 -53.46991013 21.06380247 -45.50708008 16.78417969 C-37.63599437 12.53947804 -29.86154022 8.14046681 -22.13037109 3.64624023 C-21.31648926 3.17516846 -20.50260742 2.70409668 -19.6640625 2.21875 C-18.5970813 1.59661621 -18.5970813 1.59661621 -17.50854492 0.96191406 C-12.07720274 -1.94098413 -5.71091204 -2.2809604 0 0 Z " fill="#C12C48" transform="translate(156.62109375,437.046875)"/>
<path d="M0 0 C6.19147349 3.77468102 9.68143829 9.19888565 12 16 C13.35468854 23.68947017 10.95379728 31.22956975 6.875 37.75 C2.73508578 43.14443369 -3.41242727 45.93544825 -10 47 C-17.7395222 47.95046764 -23.61585308 45.37565126 -30 41 C-35.89575419 34.74143017 -38.60880895 26.9616903 -38.375 18.3984375 C-37.2727594 11.34869034 -33.43889342 5.45777823 -27.80859375 1.18359375 C-19.02502113 -4.564619 -9.33638265 -4.5725673 0 0 Z " fill="#FDD9A2" transform="translate(490,273)"/>
<path d="M0 0 C2.4118783 4.40429951 2.2225425 8.73878723 1.4375 13.625 C-1.37835642 20.47999472 -6.96012658 26.39199124 -13.46484375 29.89453125 C-17.74556629 31.38521117 -22.12221918 31.3427633 -26.5625 30.625 C-29.21813802 28.7281157 -30.13492527 27.48014945 -31.5625 24.625 C-32.30238603 17.22613969 -29.62539818 12.07676563 -25.1875 6.375 C-18.16154894 -0.98552016 -9.56796411 -5.13402952 0 0 Z " fill="#FBC570" transform="translate(321.5625,163.375)"/>
<path d="M0 0 C8.46377828 3.54032105 12.97297415 8.94594829 17 17 C17.4616669 21.76803517 17.81867332 26.32366891 15.6875 30.6875 C11.18742251 32.88521226 6.89273074 32.76788691 2 32 C-4.96894979 29.37454496 -10.33362987 23.3284075 -14.171875 17.09765625 C-15.82242596 12.91677952 -15.5621271 8.40332893 -15 4 C-10.89170874 -1.75160777 -6.40769277 -1.54601388 0 0 Z " fill="#FDBA4D" transform="translate(91,378)"/>
<path d="M0 0 C1.26169079 0.64426764 2.51693469 1.30250851 3.75 2 C3.75 2.99 3.75 3.98 3.75 5 C3.1108667 5.33209473 2.4717334 5.66418945 1.81323242 6.00634766 C-1.14593668 7.5447634 -4.10422056 9.08487421 -7.0625 10.625 C-8.06732422 11.14707031 -9.07214844 11.66914063 -10.10742188 12.20703125 C-16.14915746 15.35417326 -22.13920541 18.57176651 -28.0769043 21.91162109 C-30.25 23 -30.25 23 -32.25 23 C-33.07418142 15.82656914 -31.97634162 11.16590925 -27.97265625 5.13671875 C-21.15772537 -3.31626808 -9.5713109 -4.29949363 0 0 Z " fill="#C83651" transform="translate(242.25,394)"/>
<path d="M0 0 C3.85098598 0.26558524 6.16695501 2.56043348 9 5 C5.98632269 12.60191636 -3.1390332 16.85667811 -10.25 19.9375 C-14.53587652 21.60050938 -18.4183675 22.68761597 -23 23 C-24.17571451 19.32589215 -24.07366746 15.83070817 -24 12 C-22.74896484 11.67128906 -22.74896484 11.67128906 -21.47265625 11.3359375 C-13.17023494 8.99642359 -6.1707227 6.1707227 0 0 Z " fill="#552663" transform="translate(158,351)"/>
<path d="M0 0 C0.32871094 1.25103516 0.32871094 1.25103516 0.6640625 2.52734375 C3.15840947 11.37923361 6.28641086 18.5852353 13 25 C11.55746343 28.36591866 9.66735273 30.51047079 7 33 C0.02159784 30.44653921 -4.3953102 21.37112552 -7.47265625 14.90625 C-9.27142041 10.21270051 -10.55057262 6.09279673 -10 1 C-6.52674819 -0.1577506 -3.63932552 -0.06866652 0 0 Z " fill="#542563" transform="translate(243,205)"/>
</svg>
